
<?xml version="1.0" encoding="UTF-8" standalone="no"?>
<svg width="314px" height="314px" viewBox="0 0 314 314" version="1.1" xmlns="http://www.w3.org/2000/svg" xmlns:xlink="http://www.w3.org/1999/xlink" xmlns:sketch="http://www.bohemiancoding.com/sketch/ns">
    <!-- Generator: Sketch 3.1.1 (8761) - http://www.bohemiancoding.com/sketch -->
    <title>fi-social-8tracks</title>
    <desc>Created with Sketch.</desc>
    <defs></defs>
    <g id="Page-1" stroke="none" stroke-width="1" fill="none" fill-rule="evenodd" sketch:type="MSPage">
        <g id="fi-social-8tracks" sketch:type="MSLayerGroup" fill="#000000">
            <path d="M86.304,141.455 C38.723,141.455 0.214,180.041 0.2,227.62 C0.212,275.216 38.722,313.802 86.304,313.802 C133.844,313.802 172.301,275.214 172.323,227.62 C172.323,203.311 172.318,197.384 172.318,197.384 L141.575,197.384 L141.575,227.62 C141.547,242.951 135.396,256.678 125.374,266.74 C115.325,276.783 101.621,282.958 86.304,282.958 C70.971,282.958 57.283,276.779 47.207,266.74 C37.182,256.677 31.032,242.95 31.01,227.62 C31.031,212.304 37.182,198.579 47.207,188.516 C57.284,178.473 70.971,172.314 86.304,172.295 L227.709,172.295 C275.272,172.295 313.785,133.976 313.801,86.381 C313.785,38.768 275.274,0.217 227.709,0.201 C180.158,0.218 141.635,38.768 141.617,86.381 C141.617,110.562 141.596,116.367 141.596,116.367 L172.322,116.367 L172.322,86.381 C172.349,71.067 178.589,57.338 188.637,47.26 C198.677,37.236 212.381,31.057 227.706,31.057 C243.02,31.057 256.755,37.234 266.804,47.277 C276.818,57.339 282.974,71.066 282.974,86.38 C282.974,101.729 276.818,115.44 266.794,125.482 C256.755,135.525 243.021,141.437 227.706,141.453 L86.304,141.453 L86.304,141.455 L86.304,141.455 Z" id="Shape" sketch:type="MSShapeGroup"></path>
        </g>
    </g>
</svg>